<svg width="28" height="40" viewBox="0 0 28 40" fill="none" xmlns="http://www.w3.org/2000/svg">
<path d="M0 11.1668C0 8.37904 2.2599 6.11914 5.04762 6.11914H22.7143C25.502 6.11914 27.7619 8.37904 27.7619 11.1668V28.8334C27.7619 31.6212 25.502 33.881 22.7143 33.881H5.04762C2.2599 33.881 0 31.6212 0 28.8334V11.1668Z" fill="#CDDFCC"/>
<path d="M22.353 3.52941H5.88243C5.23268 3.52941 4.70596 3.00269 4.70596 2.35294V1.17647C4.70596 0.526724 5.23268 0 5.88243 0H22.353C23.0027 0 23.5295 0.526724 23.5295 1.17647V2.35294C23.5295 3.00269 23.0027 3.52941 22.353 3.52941Z" fill="#52A350"/>
<path d="M22.353 40H5.88243C5.23268 40 4.70596 39.4733 4.70596 38.8235V37.6471C4.70596 36.9973 5.23268 36.4706 5.88243 36.4706H22.353C23.0027 36.4706 23.5295 36.9973 23.5295 37.6471V38.8235C23.5295 39.4733 23.0027 40 22.353 40Z" fill="#52A350"/>
<path fill-rule="evenodd" clip-rule="evenodd" d="M22.7143 8.64286H5.04762C3.65376 8.64286 2.52381 9.77281 2.52381 11.1667V28.8333C2.52381 30.2272 3.65376 31.3571 5.04762 31.3571H22.7143C24.1081 31.3571 25.2381 30.2272 25.2381 28.8333V11.1667C25.2381 9.77281 24.1081 8.64286 22.7143 8.64286ZM5.04762 6.11905C2.2599 6.11905 0 8.37895 0 11.1667V28.8333C0 31.6211 2.2599 33.881 5.04762 33.881H22.7143C25.502 33.881 27.7619 31.6211 27.7619 28.8333V11.1667C27.7619 8.37895 25.502 6.11905 22.7143 6.11905H5.04762Z" fill="#52A350"/>
<path fill-rule="evenodd" clip-rule="evenodd" d="M21.17 17.2421C21.5465 17.6125 21.5465 18.2129 21.17 18.5833L13.5986 26.0317C13.2221 26.4021 12.6117 26.4021 12.2352 26.0317L6.59191 20.4801C6.21539 20.1098 6.21539 19.5093 6.59191 19.1389L8.637 17.127C9.01352 16.7566 9.62393 16.7566 10.0004 17.127L12.9169 19.9961L17.7615 15.2302C18.138 14.8598 18.7484 14.8598 19.1249 15.2302L21.17 17.2421Z" fill="#52A350"/>
<path fill-rule="evenodd" clip-rule="evenodd" d="M21.17 17.2421C21.5465 17.6125 21.5465 18.2129 21.17 18.5833L13.5986 26.0317C13.2221 26.4021 12.6117 26.4021 12.2352 26.0317L6.59191 20.4801C6.21539 20.1098 6.21539 19.5093 6.59191 19.1389L8.637 17.127C9.01352 16.7566 9.62393 16.7566 10.0004 17.127L12.9169 19.9961L17.7615 15.2302C18.138 14.8598 18.7484 14.8598 19.1249 15.2302L21.17 17.2421Z" fill="#52A350"/>
</svg>
